<svg height="64" viewBox="0 0 512 512" width="64" xmlns="http://www.w3.org/2000/svg"><path d="m217 28.098v455.804l142-42.597v-370.608zm-98 26.902v160h18v-142h62v-18zm257.98.03.02 2.275v29.695h16v-32zm.02 49.97v16h16v-16zm0 34v236h16v-236zm-276.564 58.727-58.274 58.273 58.274 58.273v-35.273h96v-46h-96zm143.564 34.273c6.627 0 12 10.745 12 24s-5.373 24-12 24-12-10.745-12-24 5.373-24 12-24zm-125 65v151h18v-151zm258 96v14h16v-14zm0 32v23h16v-23zm-345 46v18h167v-18zm290.652 0-60 18h217.348v-18z" fill="#fff" transform="matrix(-1 0 0 1 512 0)"/></svg>