<svg height="64" viewBox="0 0 512 512" width="64" xmlns="http://www.w3.org/2000/svg"><path d="m217 28.098v455.804l142-42.597v-370.608zm159.938 26.88.062 2.327v29.695h16v-32zm-257.938.022v117.27h18v-99.27h62v-18zm258 50v16h16v-16zm0 34v236h16v-236zm-240 58.727v35.273h-96v46h96v35.273l58.273-58.273zm107 34.273c6.627 0 12 10.745 12 24s-5.373 24-12 24-12-10.745-12-24 5.373-24 12-24zm-107 107.73h-18v108.27h18zm240 53.27v14h16v-14zm0 32v23h16v-23zm-345 46v18h167v-18zm290.652 0-60 18h217.348v-18z" fill="#fff"/></svg>